

<svg width="545" height="545" viewBox="0 0 545 545" fill="none" xmlns="http://www.w3.org/2000/svg">
<circle cx="272.162" cy="272.475" r="272" fill="#FDC964"/>
<mask id="mask0_83_1021" style="mask-type:alpha" maskUnits="userSpaceOnUse" x="0" y="0" width="545" height="545">
<circle cx="272.162" cy="272.475" r="272" fill="#FDC964"/>
</mask>
<g mask="url(#mask0_83_1021)">
<path d="M272.162 -10.5249L272.162 111.475" stroke="#E7B24A" stroke-width="20"/>
<path d="M272.162 432.475L272.162 554.475" stroke="#E7B24A" stroke-width="20"/>
<path d="M345.278 -0.898926L313.703 116.944" stroke="#E7B24A" stroke-width="20"/>
<path d="M230.622 427.006L199.046 544.849" stroke="#E7B24A" stroke-width="20"/>
<path d="M413.412 27.3229L352.412 132.978" stroke="#E7B24A" stroke-width="20"/>
<path d="M191.912 410.972L130.912 516.627" stroke="#E7B24A" stroke-width="20"/>
<path d="M471.92 72.2174L385.653 158.484" stroke="#E7B24A" stroke-width="20"/>
<path d="M158.671 385.466L72.4044 471.733" stroke="#E7B24A" stroke-width="20"/>
<path d="M516.814 130.725L411.159 191.725" stroke="#E7B24A" stroke-width="20"/>
<path d="M133.165 352.225L27.5099 413.225" stroke="#E7B24A" stroke-width="20"/>
<path d="M545.036 198.859L427.193 230.435" stroke="#E7B24A" stroke-width="20"/>
<path d="M117.131 313.516L-0.711969 345.092" stroke="#E7B24A" stroke-width="20"/>
<path d="M554.662 271.975L432.662 271.975" stroke="#E7B24A" stroke-width="20"/>
<path d="M111.662 271.975L-10.3379 271.975" stroke="#E7B24A" stroke-width="20"/>
<path d="M545.036 345.092L427.193 313.516" stroke="#E7B24A" stroke-width="20"/>
<path d="M117.131 230.435L-0.711969 198.859" stroke="#E7B24A" stroke-width="20"/>
<path d="M516.814 413.225L411.159 352.225" stroke="#E7B24A" stroke-width="20"/>
<path d="M133.165 191.725L27.5099 130.725" stroke="#E7B24A" stroke-width="20"/>
<path d="M471.92 471.733L385.653 385.466" stroke="#E7B24A" stroke-width="20"/>
<path d="M158.671 158.484L72.4044 72.2175" stroke="#E7B24A" stroke-width="20"/>
<path d="M413.412 516.627L352.412 410.972" stroke="#E7B24A" stroke-width="20"/>
<path d="M191.912 132.978L130.912 27.3229" stroke="#E7B24A" stroke-width="20"/>
<path d="M345.278 544.849L313.703 427.006" stroke="#E7B24A" stroke-width="20"/>
<path d="M230.622 116.944L199.046 -0.89898" stroke="#E7B24A" stroke-width="20"/>
<path d="M309.737 -8.01489L293.51 112.901" stroke="#E7B24A" stroke-width="20"/>
<path d="M250.814 431.049L234.587 551.965" stroke="#E7B24A" stroke-width="20"/>
<path d="M380.923 11.2506L333.954 123.847" stroke="#E7B24A" stroke-width="20"/>
<path d="M210.37 420.104L163.401 532.7" stroke="#E7B24A" stroke-width="20"/>
<path d="M444.698 48.2841L370.187 144.887" stroke="#E7B24A" stroke-width="20"/>
<path d="M174.137 399.063L99.6265 495.666" stroke="#E7B24A" stroke-width="20"/>
<path d="M496.714 100.562L399.739 174.588" stroke="#E7B24A" stroke-width="20"/>
<path d="M144.585 369.362L47.61 443.389" stroke="#E7B24A" stroke-width="20"/>
<path d="M533.428 164.521L420.598 210.926" stroke="#E7B24A" stroke-width="20"/>
<path d="M123.726 333.024L10.8962 379.429" stroke="#E7B24A" stroke-width="20"/>
<path d="M552.337 235.803L431.341 251.424" stroke="#E7B24A" stroke-width="20"/>
<path d="M112.983 292.526L-8.01261 308.147" stroke="#E7B24A" stroke-width="20"/>
<path d="M552.152 309.55L431.236 293.323" stroke="#E7B24A" stroke-width="20"/>
<path d="M113.088 250.627L-7.82789 234.4" stroke="#E7B24A" stroke-width="20"/>
<path d="M532.887 380.736L420.291 333.767" stroke="#E7B24A" stroke-width="20"/>
<path d="M124.034 210.183L11.4376 163.214" stroke="#E7B24A" stroke-width="20"/>
<path d="M495.853 444.511L399.25 370" stroke="#E7B24A" stroke-width="20"/>
<path d="M145.074 173.95L48.471 99.4395" stroke="#E7B24A" stroke-width="20"/>
<path d="M443.576 496.527L369.549 399.553" stroke="#E7B24A" stroke-width="20"/>
<path d="M174.775 144.398L100.749 47.423" stroke="#E7B24A" stroke-width="20"/>
<path d="M379.616 533.241L333.211 420.411" stroke="#E7B24A" stroke-width="20"/>
<path d="M211.113 123.539L164.708 10.7094" stroke="#E7B24A" stroke-width="20"/>
<path d="M308.334 552.15L292.713 431.154" stroke="#E7B24A" stroke-width="20"/>
<path d="M251.611 112.796L235.99 -8.1995" stroke="#E7B24A" stroke-width="20"/>
</g>
<path d="M512.162 272.475C512.162 404.443 404.962 511.475 272.662 511.475C140.362 511.475 33.1621 404.443 33.1621 272.475C33.1621 140.507 140.362 33.4751 272.662 33.4751C404.962 33.4751 512.162 140.507 512.162 272.475Z" fill="#FDC964" stroke="#E7B24A" stroke-width="30"/>
<circle cx="155.662" cy="264.975" r="20.5" fill="#181818"/>
<circle cx="277.662" cy="205.975" r="20.5" fill="#181818"/>
<path d="M215.164 275.386C224.328 276.291 245.641 272.926 257.583 252.224" stroke="#E7B24A" stroke-width="30" stroke-linecap="round"/>
</svg>
